<mxfile host="app.diagrams.net" modified="2022-07-19T21:08:05.693Z" agent="5.0 (Windows)" etag="XmBhALTvcBA8pNHb4Ga_" version="20.1.1" type="github">
  <diagram id="1pK2U52u39EcWoUf9Ywa" name="PÃ¡gina-1">
    <mxGraphModel dx="2031" dy="1063" grid="1" gridSize="10" guides="1" tooltips="1" connect="1" arrows="1" fold="1" page="1" pageScale="1" pageWidth="1169" pageHeight="827" background="#182E3E" math="0" shadow="0">
      <root>
        <mxCell id="0" />
        <mxCell id="1" parent="0" />
        <mxCell id="-nL9x9uwBdVTPMebP5XL-2" value="&lt;div&gt;&lt;font color=&quot;#FFFFFF&quot;&gt;EJERCICIO 2 - ACADEMIA DE CLASES&lt;/font&gt;&lt;/div&gt;" style="text;html=1;align=center;verticalAlign=middle;resizable=0;points=[];autosize=1;strokeColor=none;fillColor=none;fontSize=18;fontColor=#1A1A1A;shadow=0;" vertex="1" parent="1">
          <mxGeometry x="365" y="40" width="350" height="40" as="geometry" />
        </mxCell>
        <mxCell id="-nL9x9uwBdVTPMebP5XL-3" value="&lt;font color=&quot;#0F0F0F&quot;&gt;ALUMNOS&lt;/font&gt;" style="rounded=0;whiteSpace=wrap;html=1;shadow=0;sketch=0;fontSize=18;fontColor=#FFFFFF;strokeColor=#FFFFFF;fillColor=#EEEEEE;" vertex="1" parent="1">
          <mxGeometry x="240" y="170" width="120" height="60" as="geometry" />
        </mxCell>
        <mxCell id="-nL9x9uwBdVTPMebP5XL-4" value="DESEMPLEADOS" style="rounded=0;whiteSpace=wrap;html=1;shadow=0;sketch=0;fontSize=18;fontColor=#0F0F0F;strokeColor=#FFFFFF;fillColor=#EEEEEE;" vertex="1" parent="1">
          <mxGeometry x="80" y="260" width="200" height="60" as="geometry" />
        </mxCell>
        <mxCell id="-nL9x9uwBdVTPMebP5XL-6" value="TRABAJADORES" style="rounded=0;whiteSpace=wrap;html=1;shadow=0;sketch=0;fontSize=18;fontColor=#0F0F0F;strokeColor=#FFFFFF;fillColor=#EEEEEE;" vertex="1" parent="1">
          <mxGeometry x="320" y="260" width="190" height="60" as="geometry" />
        </mxCell>
        <mxCell id="-nL9x9uwBdVTPMebP5XL-7" value="" style="endArrow=none;html=1;rounded=1;sketch=0;fontSize=18;fontColor=#0F0F0F;strokeColor=#FFFFFF;curved=0;exitX=0.5;exitY=0;exitDx=0;exitDy=0;entryX=0;entryY=1;entryDx=0;entryDy=0;" edge="1" parent="1" source="-nL9x9uwBdVTPMebP5XL-4" target="-nL9x9uwBdVTPMebP5XL-3">
          <mxGeometry width="50" height="50" relative="1" as="geometry">
            <mxPoint x="510" y="460" as="sourcePoint" />
            <mxPoint x="560" y="410" as="targetPoint" />
          </mxGeometry>
        </mxCell>
        <mxCell id="-nL9x9uwBdVTPMebP5XL-8" value="" style="endArrow=none;html=1;rounded=1;sketch=0;fontSize=18;fontColor=#0F0F0F;strokeColor=#FFFFFF;curved=0;entryX=1;entryY=1;entryDx=0;entryDy=0;exitX=0.5;exitY=0;exitDx=0;exitDy=0;" edge="1" parent="1" source="-nL9x9uwBdVTPMebP5XL-6" target="-nL9x9uwBdVTPMebP5XL-3">
          <mxGeometry width="50" height="50" relative="1" as="geometry">
            <mxPoint x="510" y="460" as="sourcePoint" />
            <mxPoint x="560" y="410" as="targetPoint" />
          </mxGeometry>
        </mxCell>
        <mxCell id="-nL9x9uwBdVTPMebP5XL-10" value="&lt;div&gt;CURSO&lt;/div&gt;" style="rounded=0;whiteSpace=wrap;html=1;shadow=0;sketch=0;fontSize=18;fontColor=#0F0F0F;strokeColor=#FFFFFF;fillColor=#EEEEEE;" vertex="1" parent="1">
          <mxGeometry x="430" y="90" width="120" height="60" as="geometry" />
        </mxCell>
        <mxCell id="-nL9x9uwBdVTPMebP5XL-11" value="" style="endArrow=none;html=1;rounded=1;sketch=0;fontSize=18;fontColor=#0F0F0F;strokeColor=#FFFFFF;curved=0;entryX=0;entryY=1;entryDx=0;entryDy=0;exitX=1;exitY=0;exitDx=0;exitDy=0;" edge="1" parent="1" source="-nL9x9uwBdVTPMebP5XL-3" target="-nL9x9uwBdVTPMebP5XL-10">
          <mxGeometry width="50" height="50" relative="1" as="geometry">
            <mxPoint x="510" y="460" as="sourcePoint" />
            <mxPoint x="560" y="410" as="targetPoint" />
          </mxGeometry>
        </mxCell>
        <mxCell id="-nL9x9uwBdVTPMebP5XL-12" value="PROFESORES" style="rounded=0;whiteSpace=wrap;html=1;shadow=0;sketch=0;fontSize=18;fontColor=#0F0F0F;strokeColor=#FFFFFF;fillColor=#EEEEEE;" vertex="1" parent="1">
          <mxGeometry x="620" y="170" width="160" height="60" as="geometry" />
        </mxCell>
        <mxCell id="-nL9x9uwBdVTPMebP5XL-13" value="" style="endArrow=none;html=1;rounded=1;sketch=0;fontSize=18;fontColor=#0F0F0F;strokeColor=#FFFFFF;curved=0;exitX=1;exitY=1;exitDx=0;exitDy=0;entryX=0;entryY=0;entryDx=0;entryDy=0;" edge="1" parent="1" source="-nL9x9uwBdVTPMebP5XL-10" target="-nL9x9uwBdVTPMebP5XL-12">
          <mxGeometry width="50" height="50" relative="1" as="geometry">
            <mxPoint x="510" y="460" as="sourcePoint" />
            <mxPoint x="560" y="410" as="targetPoint" />
          </mxGeometry>
        </mxCell>
        <mxCell id="-nL9x9uwBdVTPMebP5XL-14" value="DATOS" style="rounded=0;whiteSpace=wrap;html=1;shadow=0;sketch=0;fontSize=18;fontColor=#0F0F0F;strokeColor=#FFFFFF;fillColor=#EEEEEE;" vertex="1" parent="1">
          <mxGeometry x="80" y="430" width="120" height="60" as="geometry" />
        </mxCell>
        <mxCell id="-nL9x9uwBdVTPMebP5XL-21" value="" style="group" vertex="1" connectable="0" parent="1">
          <mxGeometry x="110" y="510" width="120" height="190" as="geometry" />
        </mxCell>
        <mxCell id="-nL9x9uwBdVTPMebP5XL-15" value="DNI" style="ellipse;whiteSpace=wrap;html=1;rounded=0;shadow=0;sketch=0;fontSize=18;fontColor=#0F0F0F;strokeColor=#FFFFFF;fillColor=#EEEEEE;" vertex="1" parent="-nL9x9uwBdVTPMebP5XL-21">
          <mxGeometry width="120" height="28.78787878787879" as="geometry" />
        </mxCell>
        <mxCell id="-nL9x9uwBdVTPMebP5XL-16" value="NOMBRE" style="ellipse;whiteSpace=wrap;html=1;rounded=0;shadow=0;sketch=0;fontSize=18;fontColor=#0F0F0F;strokeColor=#FFFFFF;fillColor=#EEEEEE;" vertex="1" parent="-nL9x9uwBdVTPMebP5XL-21">
          <mxGeometry y="40.303030303030305" width="120" height="28.78787878787879" as="geometry" />
        </mxCell>
        <mxCell id="-nL9x9uwBdVTPMebP5XL-18" value="APELLIDOS" style="ellipse;whiteSpace=wrap;html=1;rounded=0;shadow=0;sketch=0;fontSize=18;fontColor=#0F0F0F;strokeColor=#FFFFFF;fillColor=#EEEEEE;" vertex="1" parent="-nL9x9uwBdVTPMebP5XL-21">
          <mxGeometry y="80.60606060606061" width="120" height="28.78787878787879" as="geometry" />
        </mxCell>
        <mxCell id="-nL9x9uwBdVTPMebP5XL-19" value="DIRECCION" style="ellipse;whiteSpace=wrap;html=1;rounded=0;shadow=0;sketch=0;fontSize=18;fontColor=#0F0F0F;strokeColor=#FFFFFF;fillColor=#EEEEEE;" vertex="1" parent="-nL9x9uwBdVTPMebP5XL-21">
          <mxGeometry y="120.90909090909092" width="120" height="28.78787878787879" as="geometry" />
        </mxCell>
        <mxCell id="-nL9x9uwBdVTPMebP5XL-20" value="TELEFONO" style="ellipse;whiteSpace=wrap;html=1;rounded=0;shadow=0;sketch=0;fontSize=18;fontColor=#0F0F0F;strokeColor=#FFFFFF;fillColor=#EEEEEE;" vertex="1" parent="-nL9x9uwBdVTPMebP5XL-21">
          <mxGeometry y="161.21212121212122" width="120" height="28.78787878787879" as="geometry" />
        </mxCell>
        <mxCell id="-nL9x9uwBdVTPMebP5XL-22" value="" style="endArrow=none;html=1;rounded=1;sketch=0;fontSize=18;fontColor=#0F0F0F;strokeColor=#FFFFFF;curved=0;entryX=0;entryY=1;entryDx=0;entryDy=0;" edge="1" parent="1" target="-nL9x9uwBdVTPMebP5XL-14">
          <mxGeometry width="50" height="50" relative="1" as="geometry">
            <mxPoint x="80" y="680" as="sourcePoint" />
            <mxPoint x="560" y="410" as="targetPoint" />
          </mxGeometry>
        </mxCell>
        <mxCell id="-nL9x9uwBdVTPMebP5XL-23" value="" style="endArrow=none;html=1;rounded=1;sketch=0;fontSize=18;fontColor=#0F0F0F;strokeColor=#FFFFFF;curved=0;" edge="1" parent="1">
          <mxGeometry width="50" height="50" relative="1" as="geometry">
            <mxPoint x="80" y="680" as="sourcePoint" />
            <mxPoint x="100" y="680" as="targetPoint" />
          </mxGeometry>
        </mxCell>
        <mxCell id="-nL9x9uwBdVTPMebP5XL-25" value="" style="endArrow=none;html=1;rounded=1;sketch=0;fontSize=18;fontColor=#0F0F0F;strokeColor=#FFFFFF;curved=0;" edge="1" parent="1">
          <mxGeometry width="50" height="50" relative="1" as="geometry">
            <mxPoint x="80" y="640" as="sourcePoint" />
            <mxPoint x="100" y="640" as="targetPoint" />
          </mxGeometry>
        </mxCell>
        <mxCell id="-nL9x9uwBdVTPMebP5XL-27" value="" style="endArrow=none;html=1;rounded=1;sketch=0;fontSize=18;fontColor=#0F0F0F;strokeColor=#FFFFFF;curved=0;" edge="1" parent="1">
          <mxGeometry width="50" height="50" relative="1" as="geometry">
            <mxPoint x="80" y="604.29" as="sourcePoint" />
            <mxPoint x="100" y="604.29" as="targetPoint" />
          </mxGeometry>
        </mxCell>
        <mxCell id="-nL9x9uwBdVTPMebP5XL-28" value="" style="endArrow=none;html=1;rounded=1;sketch=0;fontSize=18;fontColor=#0F0F0F;strokeColor=#FFFFFF;curved=0;" edge="1" parent="1">
          <mxGeometry width="50" height="50" relative="1" as="geometry">
            <mxPoint x="80" y="560" as="sourcePoint" />
            <mxPoint x="100" y="560" as="targetPoint" />
          </mxGeometry>
        </mxCell>
        <mxCell id="-nL9x9uwBdVTPMebP5XL-29" value="" style="endArrow=none;html=1;rounded=1;sketch=0;fontSize=18;fontColor=#0F0F0F;strokeColor=#FFFFFF;curved=0;" edge="1" parent="1">
          <mxGeometry width="50" height="50" relative="1" as="geometry">
            <mxPoint x="80" y="520" as="sourcePoint" />
            <mxPoint x="100" y="520" as="targetPoint" />
          </mxGeometry>
        </mxCell>
        <mxCell id="-nL9x9uwBdVTPMebP5XL-30" value="" style="endArrow=none;html=1;rounded=1;sketch=0;fontSize=18;fontColor=#0F0F0F;strokeColor=#FFFFFF;curved=0;entryX=0;entryY=0.5;entryDx=0;entryDy=0;exitX=0;exitY=0;exitDx=0;exitDy=0;" edge="1" parent="1" source="-nL9x9uwBdVTPMebP5XL-14" target="-nL9x9uwBdVTPMebP5XL-3">
          <mxGeometry width="50" height="50" relative="1" as="geometry">
            <mxPoint x="30" y="600" as="sourcePoint" />
            <mxPoint x="560" y="410" as="targetPoint" />
            <Array as="points">
              <mxPoint x="30" y="430" />
              <mxPoint x="30" y="200" />
            </Array>
          </mxGeometry>
        </mxCell>
      </root>
    </mxGraphModel>
  </diagram>
</mxfile>
